<svg xmlns="http://www.w3.org/2000/svg" width="49" height="58" viewBox="0 0 49 58"><path fill="#9ACE36" fill-rule="evenodd" d="M39.685 39.942V18.485H9.197v21.457c0 2.961 2.409 5.363 5.38 5.363h.023V54.7c0 1.734 1.606 3.138 3.583 3.138 1.98 0 3.585-1.404 3.585-3.138v-9.395h5.388V54.7c0 1.734 1.606 3.138 3.583 3.138 1.98 0 3.586-1.404 3.586-3.138v-9.395c2.962-.01 5.362-2.405 5.362-5.363h-.002zM.25 21.624v13.41c0 1.729 1.604 3.137 3.584 3.137s3.586-1.406 3.586-3.137v-13.41c0-1.733-1.607-3.134-3.586-3.134-1.977 0-3.584 1.403-3.584 3.134zm17.913-10.29c0-.989.803-1.79 1.795-1.79a1.79 1.79 0 0 1 0 3.578c-.991 0-1.795-.801-1.795-1.788zm8.97 0c0-.989.8-1.79 1.793-1.79a1.79 1.79 0 0 1 0 3.578 1.792 1.792 0 0 1-1.794-1.788zM9.197 16.698c0 .004 30.489.06 30.489 0 0-5.023-3.613-9.344-8.815-11.336l3.118-3.107a.983.983 0 0 0 0-1.395.991.991 0 0 0-1.4 0l-3.848 3.836a18.308 18.308 0 0 0-8.648.01L16.237.86a.99.99 0 0 0-1.398 0 .981.981 0 0 0 0 1.395l3.133 3.121c-5.182 2-8.776 6.311-8.774 11.322zm32.306 4.926v13.41c0 1.731 1.606 3.137 3.585 3.137 1.98 0 3.585-1.406 3.585-3.137v-13.41c0-1.733-1.604-3.134-3.585-3.134-1.979 0-3.585 1.403-3.585 3.134z"/></svg>