<svg xmlns="http://www.w3.org/2000/svg" width="60" height="57" viewBox="0 0 60 57"><path fill="#444" fill-rule="evenodd" d="M21.5 37c-.828 0-1.5-2.238-1.5-5 0-2.76.672-5 1.5-5s1.5 2.24 1.5 5c0 2.762-.672 5-1.5 5zm17-1c-.828 0-1.5-2.24-1.5-5 0-2.762.672-5 1.5-5 .83 0 1.5 2.238 1.5 5 0 2.76-.67 5-1.5 5zm5.07-25h-8.723l.581 4.125H24.572L25.153 11H16.43L11 22l2.715 22h32.57L49 22l-5.43-11zm10.975 46h-9.716l.683-8.144h-4.773L40.056 57H19.944l-.683-8.144H14.49L15.17 57H5.456L0 21.713 13.637 0h32.726L60 21.713 54.545 57z"/></svg>