<svg xmlns:xlink="http://www.w3.org/1999/xlink" height="65px" version="1.1" viewBox="0 0 54 65" width="54px" xmlns="http://www.w3.org/2000/svg"><defs><path _ngcontent-instabug-website-c9="" d="M52,29 L34.73498,46 L52,63 L32.2711949,63 L15,46 L32.2711949,29 L52,29 Z M32.193133,-1.04152797e-14 L-1.15879528e-14,31.3522309 L9.90653314,41 L52,-1.04152797e-14 L32.193133,-1.04152797e-14 Z" id="path-1"></path><path _ngcontent-instabug-website-c9="" d="M52,29 L34.73498,46 L52,63 L32.2711949,63 L15,46 L32.2711949,29 L52,29 Z M32.193133,-1.04152797e-14 L-1.15879528e-14,31.3522309 L9.90653314,41 L52,-1.04152797e-14 L32.193133,-1.04152797e-14 Z" id="path-3"></path><path _ngcontent-instabug-website-c9="" d="M52,29 L34.73498,46 L52,63 L32.2711949,63 L15,46 L32.2711949,29 L52,29 Z M32.193133,-1.04152797e-14 L-1.15879528e-14,31.3522309 L9.90653314,41 L52,-1.04152797e-14 L32.193133,-1.04152797e-14 Z" id="path-5"></path><path _ngcontent-instabug-website-c9="" d="M52,29 L34.73498,46 L52,63 L32.2711949,63 L15,46 L32.2711949,29 L52,29 Z M32.193133,-1.04152797e-14 L-1.15879528e-14,31.3522309 L9.90653314,41 L52,-1.04152797e-14 L32.193133,-1.04152797e-14 Z" id="path-7"></path><linearGradient _ngcontent-instabug-website-c9="" id="linearGradient-9" x1="19.6772152%" x2="69.8945148%" y1="80.7993325%" y2="47.6982339%"><stop _ngcontent-instabug-website-c9="" offset="0%" stop-color="#1A237E" stop-opacity="0.4"></stop><stop _ngcontent-instabug-website-c9="" offset="100%" stop-color="#1A237E" stop-opacity="0"></stop></linearGradient><path _ngcontent-instabug-website-c9="" d="M52,29 L34.73498,46 L52,63 L32.2711949,63 L15,46 L32.2711949,29 L52,29 Z M32.193133,-1.04152797e-14 L-1.15879528e-14,31.3522309 L9.90653314,41 L52,-1.04152797e-14 L32.193133,-1.04152797e-14 Z" id="path-10"></path><radialGradient _ngcontent-instabug-website-c9="" cx="2.80934072%" cy="6.81570713%" fx="2.80934072%" fy="6.81570713%" gradientTransform="translate(0.028093,0.068157),scale(1.000000,0.815385),translate(-0.028093,-0.068157)" id="radialGradient-12" r="151.492877%"><stop _ngcontent-instabug-website-c9="" offset="0%" stop-color="#FFFFFF" stop-opacity="0.1"></stop><stop _ngcontent-instabug-website-c9="" offset="100%" stop-color="#FFFFFF" stop-opacity="0"></stop></radialGradient></defs><g _ngcontent-instabug-website-c9="" fill="none" fill-rule="evenodd" id="04-Logos" stroke="none" stroke-width="1"><g _ngcontent-instabug-website-c9="" id="Logos-/-Platforms-/-Flutter"><g _ngcontent-instabug-website-c9="" id="Clipped" transform="translate(-0.000000, 0.000000)"><mask _ngcontent-instabug-website-c9="" fill="white" id="mask-2"><use _ngcontent-instabug-website-c9="" xlink:href="#path-1"></use></mask><g _ngcontent-instabug-website-c9="" id="Shape"></g><polygon _ngcontent-instabug-website-c9="" fill="#39CEFD" fill-rule="nonzero" id="Path" mask="url(#mask-2)" points="15 46.1829352 24.8629611 56 52 29 32.2679019 29"></polygon></g><g _ngcontent-instabug-website-c9="" id="Clipped" transform="translate(-0.000000, 0.000000)"><mask _ngcontent-instabug-website-c9="" fill="white" id="mask-4"><use _ngcontent-instabug-website-c9="" xlink:href="#path-3"></use></mask><g _ngcontent-instabug-website-c9="" id="Shape"></g><polygon _ngcontent-instabug-website-c9="" fill="#39CEFD" fill-rule="nonzero" id="Path" mask="url(#mask-4)" points="32.193133 -6.29357677e-15 52 -6.29357677e-15 9.90653314 42 -1.50920942e-14 32.1169195"></polygon></g><g _ngcontent-instabug-website-c9="" id="Clipped" transform="translate(-0.000000, 0.000000)"><mask _ngcontent-instabug-website-c9="" fill="white" id="mask-6"><use _ngcontent-instabug-website-c9="" xlink:href="#path-5"></use></mask><g _ngcontent-instabug-website-c9="" id="Shape"></g><polygon _ngcontent-instabug-website-c9="" fill="#03569B" fill-rule="nonzero" id="Path" mask="url(#mask-6)" points="25 55.7160229 32.3675467 63 52 63 34.819299 46"></polygon></g><g _ngcontent-instabug-website-c9="" id="Clipped" transform="translate(-0.000000, 0.000000)"><mask _ngcontent-instabug-website-c9="" fill="white" id="mask-8"><use _ngcontent-instabug-website-c9="" xlink:href="#path-7"></use></mask><g _ngcontent-instabug-website-c9="" id="Shape"></g><polygon _ngcontent-instabug-website-c9="" fill="url(#linearGradient-9)" fill-rule="nonzero" id="Path" mask="url(#mask-8)" points="40 50.8623279 35.1139241 46 25 56"></polygon></g><g _ngcontent-instabug-website-c9="" id="Clipped" transform="translate(-0.000000, 0.000000)"><mask _ngcontent-instabug-website-c9="" fill="white" id="mask-11"><use _ngcontent-instabug-website-c9="" xlink:href="#path-10"></use></mask><g _ngcontent-instabug-website-c9="" id="Shape"></g><polygon _ngcontent-instabug-website-c9="" fill="#16B9FD" fill-rule="nonzero" id="Path" mask="url(#mask-11)" points="15 47 24.9996871 37 35 47 24.9996871 57"></polygon></g><path _ngcontent-instabug-website-c9="" d="M54,30 L36.3103448,47.5 L54,65 L33.6896552,65 L16,47.5 L33.6896552,30 L54,30 Z M33.7160494,0 L1,32.3076923 L10.8148148,42 L54,0 L33.7160494,0 Z" fill="url(#radialGradient-12)" fill-rule="nonzero" id="Shape"></path></g></g></svg>