<svg xmlns="http://www.w3.org/2000/svg" xmlns:xlink="http://www.w3.org/1999/xlink" width="54" height="65" version="1.1" viewBox="0 0 54 65"><defs><path id="path-1" d="M52,29 L34.73498,46 L52,63 L32.2711949,63 L15,46 L32.2711949,29 L52,29 Z M32.193133,-1.04152797e-14 L-1.15879528e-14,31.3522309 L9.90653314,41 L52,-1.04152797e-14 L32.193133,-1.04152797e-14 Z"/><path id="path-3" d="M52,29 L34.73498,46 L52,63 L32.2711949,63 L15,46 L32.2711949,29 L52,29 Z M32.193133,-1.04152797e-14 L-1.15879528e-14,31.3522309 L9.90653314,41 L52,-1.04152797e-14 L32.193133,-1.04152797e-14 Z"/><path id="path-5" d="M52,29 L34.73498,46 L52,63 L32.2711949,63 L15,46 L32.2711949,29 L52,29 Z M32.193133,-1.04152797e-14 L-1.15879528e-14,31.3522309 L9.90653314,41 L52,-1.04152797e-14 L32.193133,-1.04152797e-14 Z"/><path id="path-7" d="M52,29 L34.73498,46 L52,63 L32.2711949,63 L15,46 L32.2711949,29 L52,29 Z M32.193133,-1.04152797e-14 L-1.15879528e-14,31.3522309 L9.90653314,41 L52,-1.04152797e-14 L32.193133,-1.04152797e-14 Z"/><linearGradient id="linearGradient-9" x1="19.677%" x2="69.895%" y1="80.799%" y2="47.698%"><stop offset="0%" stop-color="#1A237E" stop-opacity=".4"/><stop offset="100%" stop-color="#1A237E" stop-opacity="0"/></linearGradient><path id="path-10" d="M52,29 L34.73498,46 L52,63 L32.2711949,63 L15,46 L32.2711949,29 L52,29 Z M32.193133,-1.04152797e-14 L-1.15879528e-14,31.3522309 L9.90653314,41 L52,-1.04152797e-14 L32.193133,-1.04152797e-14 Z"/><radialGradient id="radialGradient-12" cx="2.809%" cy="6.816%" r="151.493%" fx="2.809%" fy="6.816%" gradientTransform="translate(0.028093,0.068157),scale(1.000000,0.815385),translate(-0.028093,-0.068157)"><stop offset="0%" stop-color="#FFF" stop-opacity=".1"/><stop offset="100%" stop-color="#FFF" stop-opacity="0"/></radialGradient></defs><g id="04-Logos" fill="none" fill-rule="evenodd" stroke="none" stroke-width="1"><g id="Logos-/-Platforms-/-Flutter"><g id="Clipped" transform="translate(-0.000000, 0.000000)"><mask id="mask-2" fill="#fff"><use xlink:href="#path-1"/></mask><polygon id="Path" fill="#39CEFD" fill-rule="nonzero" points="15 46.183 24.863 56 52 29 32.268 29" mask="url(#mask-2)"/></g><g id="Clipped" transform="translate(-0.000000, 0.000000)"><mask id="mask-4" fill="#fff"><use xlink:href="#path-3"/></mask><polygon id="Path" fill="#39CEFD" fill-rule="nonzero" points="32.193 0 52 0 9.907 42 0 32.117" mask="url(#mask-4)"/></g><g id="Clipped" transform="translate(-0.000000, 0.000000)"><mask id="mask-6" fill="#fff"><use xlink:href="#path-5"/></mask><polygon id="Path" fill="#03569B" fill-rule="nonzero" points="25 55.716 32.368 63 52 63 34.819 46" mask="url(#mask-6)"/></g><g id="Clipped" transform="translate(-0.000000, 0.000000)"><mask id="mask-8" fill="#fff"><use xlink:href="#path-7"/></mask><polygon id="Path" fill="url(#linearGradient-9)" fill-rule="nonzero" points="40 50.862 35.114 46 25 56" mask="url(#mask-8)"/></g><g id="Clipped" transform="translate(-0.000000, 0.000000)"><mask id="mask-11" fill="#fff"><use xlink:href="#path-10"/></mask><polygon id="Path" fill="#16B9FD" fill-rule="nonzero" points="15 47 25 37 35 47 25 57" mask="url(#mask-11)"/></g><path id="Shape" fill="url(#radialGradient-12)" fill-rule="nonzero" d="M54,30 L36.3103448,47.5 L54,65 L33.6896552,65 L16,47.5 L33.6896552,30 L54,30 Z M33.7160494,0 L1,32.3076923 L10.8148148,42 L54,0 L33.7160494,0 Z"/></g></g></svg>