<svg xmlns="http://www.w3.org/2000/svg" width="58" height="51" viewBox="0 0 58 51"><path fill="#53C1DE" fill-rule="evenodd" d="M47.503 16.537c6.136 2.112 10.102 5.418 10.102 8.838 0 3.566-4.238 7.054-10.752 9.21a33.6 33.6 0 0 1-1.056.33c.128.516.243 1.021.34 1.517 1.286 6.493.296 11.828-2.753 13.592-2.95 1.707-7.72.03-12.549-4.124a37.305 37.305 0 0 1-1.536-1.4c-.396.382-.792.75-1.185 1.093-4.987 4.354-10.106 6.162-13.157 4.404-2.954-1.703-3.882-6.67-2.694-12.925.131-.68.28-1.356.447-2.026a31.648 31.648 0 0 1-1.536-.482C4.908 32.425.784 28.894.784 25.375c0-3.407 3.84-6.693 9.857-8.788a37.693 37.693 0 0 1 2.104-.662 37.486 37.486 0 0 1-.42-1.88C11.076 7.68 11.954 2.594 14.916.88c3.087-1.788 8.23.13 13.362 4.684.319.284.634.574.941.869.46-.444.933-.877 1.415-1.298C35.532.878 40.379-.903 43.343.805c3.092 1.78 3.996 7.192 2.613 13.909a34.57 34.57 0 0 1-.283 1.248 36.83 36.83 0 0 1 1.83.575zM42.13 2.907c-1.787-1.03-5.706.41-9.902 4.059-.446.388-.88.788-1.308 1.197 1.625 1.75 3.244 3.769 4.804 5.992 2.681.25 5.24.655 7.598 1.198.092-.375.176-.75.255-1.128 1.195-5.8.455-10.222-1.447-11.318zm-5.007 27.088a73.456 73.456 0 0 0 2.441-4.595 79.121 79.121 0 0 0-2.449-4.557 73.341 73.341 0 0 0-2.738-4.368 68.798 68.798 0 0 0-10.358-.002 68.583 68.583 0 0 0-2.755 4.384v-.001a69.466 69.466 0 0 0-2.417 4.578 68.36 68.36 0 0 0 5.202 8.977c1.656.107 3.376.163 5.144.163a73.09 73.09 0 0 0 5.204-.183 80.178 80.178 0 0 0 2.726-4.396zm3.75-1.796a77.88 77.88 0 0 1-1.647 3.008 87.057 87.057 0 0 1-1.745 2.89 51.852 51.852 0 0 0 5.3-.902 51.525 51.525 0 0 0-1.909-4.996zM29.287 41.024a51.723 51.723 0 0 0 3.337-4.1c-1.127.05-2.273.075-3.43.075-1.129 0-2.237-.021-3.325-.064a54.738 54.738 0 0 0 3.418 4.089zm-8.333-6.884a73.205 73.205 0 0 1-1.784-2.915 75.214 75.214 0 0 1-1.611-2.939 54.72 54.72 0 0 0-1.842 5.013c1.622.352 3.376.634 5.237.84zm-1.793-14.497c.557-.967 1.14-1.92 1.741-2.86-1.8.225-3.529.521-5.15.884a53.88 53.88 0 0 0 1.805 4.913 73.481 73.481 0 0 1 1.604-2.937zm10.06-9.745a53.577 53.577 0 0 0-3.373 4.032 71.857 71.857 0 0 1 6.717.001 52.564 52.564 0 0 0-3.345-4.033zm9.994 9.73c.565.973 1.11 1.959 1.635 2.955a51.531 51.531 0 0 0 1.818-4.89 53.907 53.907 0 0 0-5.18-.906 77.893 77.893 0 0 1 1.727 2.84zm-24.51-6.05c.116.588.246 1.17.39 1.75 2.352-.532 4.91-.93 7.583-1.177 1.559-2.199 3.19-4.216 4.84-5.987-.284-.27-.568-.535-.852-.787-4.431-3.93-8.633-5.498-10.535-4.398-1.785 1.033-2.494 5.146-1.426 10.6zm-2.746 18.69c.462.159.93.306 1.401.44.719-2.338 1.665-4.793 2.803-7.274-1.124-2.443-2.057-4.86-2.767-7.172-.659.187-1.31.392-1.957.616-5.144 1.793-8.23 4.43-8.23 6.497 0 .971.713 2.17 2.122 3.376 1.568 1.342 3.856 2.572 6.628 3.517zm8.195 15.477h.001c1.946-.688 4.155-2.054 6.36-3.98.369-.322.73-.655 1.082-.996-1.66-1.78-3.305-3.81-4.877-6.023-2.754-.222-5.33-.591-7.658-1.107a36.674 36.674 0 0 0-.415 1.886c-1.016 5.348-.27 9.336 1.521 10.37.843.485 2.236.467 3.986-.15zm23.601-10.842a29.787 29.787 0 0 0-.308-1.373c-2.353.544-4.948.943-7.697 1.185-1.56 2.26-3.16 4.295-4.762 6.046.478.459.956.893 1.429 1.301 4.13 3.551 7.96 4.898 9.75 3.863.841-.488 1.522-1.704 1.861-3.527.377-2.029.295-4.623-.273-7.495zm2.333-4.62c5.626-1.863 9.088-4.712 9.088-6.908 0-2.061-3.206-4.736-8.465-6.544a33.815 33.815 0 0 0-1.69-.532c-.698 2.26-1.632 4.647-2.765 7.089 1.188 2.498 2.16 4.918 2.878 7.193.326-.096.644-.196.954-.298zM29.195 20.304a5.072 5.072 0 0 1 5.073 5.07c0 2.801-2.271 5.071-5.073 5.071a5.073 5.073 0 0 1-5.075-5.07c0-2.8 2.273-5.07 5.075-5.07z"/></svg>