<svg xmlns="http://www.w3.org/2000/svg" width="59" height="52" viewBox="0 0 59 52"><path fill="#3498DB" fill-rule="evenodd" d="M17.437 13.085a.731.731 0 0 1 .102 0h4.209a.56.56 0 0 1 .46.272l7.139 12.605c.036.062.06.131.068.203a.545.545 0 0 1 .067-.203l7.123-12.605c.1-.168.281-.27.477-.272h4.21c.37.004.65.47.475.796L34.8 26.233l6.968 12.334c.192.33-.093.816-.476.812h-4.209a.557.557 0 0 1-.477-.287l-7.123-12.606a.551.551 0 0 1-.067-.203.532.532 0 0 1-.068.203l-7.139 12.606a.557.557 0 0 1-.46.287h-4.21c-.381.004-.667-.482-.476-.812l6.969-12.334-6.97-12.352c-.165-.298.038-.732.376-.796zM17.216.802c-1.558.002-3.083.879-3.868 2.216l-12.2 20.998c-.771 1.34-.771 3.092 0 4.433l12.2 20.998c.785 1.336 2.31 2.214 3.868 2.217h24.399c1.557-.003 3.084-.88 3.868-2.217l12.2-20.998c.772-1.341.772-3.093 0-4.433l-12.2-20.998c-.784-1.337-2.31-2.214-3.868-2.216h-24.4z"/></svg>